<svg xmlns="http://www.w3.org/2000/svg" xmlns:xlink="http://www.w3.org/1999/xlink" width="500" zoomAndPan="magnify" viewBox="0 0 375 374.999991" height="500" preserveAspectRatio="xMidYMid meet" version="1.0"><defs><g/><clipPath id="a7c40c02b5"><path d="M 274 160 L 282 160 L 282 168 L 274 168 Z M 274 160 " clip-rule="nonzero"/></clipPath><clipPath id="6f06f7e621"><path d="M 277.011719 159.25 L 282.324219 163.195312 L 278.445312 168.414062 L 273.132812 164.46875 Z M 277.011719 159.25 " clip-rule="nonzero"/></clipPath><clipPath id="9cb6e06958"><path d="M 279.667969 161.222656 C 278.199219 160.132812 276.140625 160.417969 275.070312 161.859375 C 274 163.300781 274.324219 165.355469 275.789062 166.441406 C 277.257812 167.53125 279.316406 167.246094 280.386719 165.804688 C 281.457031 164.363281 281.132812 162.3125 279.667969 161.222656 " clip-rule="nonzero"/></clipPath></defs><g clip-path="url(#a7c40c02b5)"><g clip-path="url(#6f06f7e621)"><g clip-path="url(#9cb6e06958)"><path fill="#282929" d="M 277.011719 159.25 L 282.324219 163.195312 L 278.445312 168.414062 L 273.132812 164.46875 Z M 277.011719 159.25 " fill-opacity="1" fill-rule="nonzero"/></g></g></g><g fill="#282929" fill-opacity="1"><g transform="translate(134.975718, 192.607989)"><g><path d="M 66.875 -27.003906 C 66.386719 -27.492188 65.804688 -27.6875 65.121094 -27.6875 C 64.4375 -27.6875 63.757812 -27.492188 63.269531 -27.003906 C 53.910156 -18.132812 42.40625 -11.894531 29.832031 -8.871094 C 29.34375 -8.675781 28.757812 -8.871094 28.464844 -9.261719 C 28.171875 -9.75 28.074219 -10.234375 28.367188 -10.722656 C 30.125 -14.136719 29.734375 -18.230469 27.492188 -21.347656 C 26.125 -23.203125 24.371094 -24.761719 22.324219 -25.929688 C 19.59375 -27.785156 16.574219 -29.929688 16.476562 -32.171875 C 16.574219 -33.4375 17.058594 -34.609375 17.9375 -35.582031 L 23.203125 -40.554688 C 24.175781 -41.527344 24.273438 -43.089844 23.398438 -44.0625 C 22.519531 -45.136719 21.058594 -45.332031 19.886719 -44.453125 C 17.839844 -42.894531 15.890625 -41.140625 14.234375 -39.09375 L -0.78125 -25.054688 C -1.460938 -24.46875 -1.753906 -23.496094 -1.558594 -22.617188 C -1.363281 -21.640625 -0.683594 -20.960938 0.195312 -20.667969 C 1.074219 -20.472656 2.046875 -20.667969 2.730469 -21.347656 L 10.136719 -28.269531 C 10.527344 -28.660156 11.015625 -28.757812 11.503906 -28.757812 C 11.992188 -28.660156 12.378906 -28.367188 12.574219 -27.980469 C 14.429688 -25.445312 16.769531 -23.300781 19.398438 -21.738281 C 20.863281 -20.863281 22.128906 -19.886719 23.203125 -18.621094 C 24.175781 -17.546875 24.664062 -16.085938 24.371094 -14.621094 C 24.078125 -13.160156 23.203125 -11.894531 21.933594 -11.210938 C 15.695312 -7.703125 7.800781 -9.359375 3.507812 -15.109375 C 2.828125 -16.183594 1.265625 -16.574219 0.0976562 -15.792969 C -1.074219 -15.109375 -1.460938 -13.648438 -0.78125 -12.378906 C 2.4375 -6.824219 8.1875 -3.21875 14.621094 -2.730469 C 16.28125 -2.4375 17.839844 -2.339844 19.496094 -2.339844 C 35.972656 -2.339844 56.25 -12.671875 66.875 -23.398438 C 67.851562 -24.371094 67.851562 -26.027344 66.875 -27.003906 Z M 66.875 -27.003906 "/></g></g></g><g fill="#282929" fill-opacity="1"><g transform="translate(197.947688, 192.607989)"><g><path d="M 66.875 -27.003906 C 66.386719 -27.492188 65.804688 -27.6875 65.121094 -27.6875 C 64.4375 -27.6875 63.757812 -27.492188 63.269531 -27.003906 C 53.910156 -18.132812 42.40625 -11.894531 29.832031 -8.871094 C 29.34375 -8.675781 28.757812 -8.871094 28.464844 -9.261719 C 28.171875 -9.75 28.074219 -10.234375 28.367188 -10.722656 C 30.125 -14.136719 29.734375 -18.230469 27.492188 -21.347656 C 26.125 -23.203125 24.371094 -24.761719 22.324219 -25.929688 C 19.59375 -27.785156 16.574219 -29.929688 16.476562 -32.171875 C 16.574219 -33.4375 17.058594 -34.609375 17.9375 -35.582031 L 23.203125 -40.554688 C 24.175781 -41.527344 24.273438 -43.089844 23.398438 -44.0625 C 22.519531 -45.136719 21.058594 -45.332031 19.886719 -44.453125 C 17.839844 -42.894531 15.890625 -41.140625 14.234375 -39.09375 L -0.78125 -25.054688 C -1.460938 -24.46875 -1.753906 -23.496094 -1.558594 -22.617188 C -1.363281 -21.640625 -0.683594 -20.960938 0.195312 -20.667969 C 1.074219 -20.472656 2.046875 -20.667969 2.730469 -21.347656 L 10.136719 -28.269531 C 10.527344 -28.660156 11.015625 -28.757812 11.503906 -28.757812 C 11.992188 -28.660156 12.378906 -28.367188 12.574219 -27.980469 C 14.429688 -25.445312 16.769531 -23.300781 19.398438 -21.738281 C 20.863281 -20.863281 22.128906 -19.886719 23.203125 -18.621094 C 24.175781 -17.546875 24.664062 -16.085938 24.371094 -14.621094 C 24.078125 -13.160156 23.203125 -11.894531 21.933594 -11.210938 C 15.695312 -7.703125 7.800781 -9.359375 3.507812 -15.109375 C 2.828125 -16.183594 1.265625 -16.574219 0.0976562 -15.792969 C -1.074219 -15.109375 -1.460938 -13.648438 -0.78125 -12.378906 C 2.4375 -6.824219 8.1875 -3.21875 14.621094 -2.730469 C 16.28125 -2.4375 17.839844 -2.339844 19.496094 -2.339844 C 35.972656 -2.339844 56.25 -12.671875 66.875 -23.398438 C 67.851562 -24.371094 67.851562 -26.027344 66.875 -27.003906 Z M 66.875 -27.003906 "/></g></g></g><g fill="#282929" fill-opacity="1"><g transform="translate(100.488568, 242.743342)"><g><path d="M 10.09375 -8.515625 L 10.09375 -3.921875 C 10.09375 -3.148438 9.921875 -2.460938 9.578125 -1.859375 C 9.234375 -1.253906 8.75 -0.78125 8.125 -0.4375 C 7.507812 -0.09375 6.796875 0.078125 5.984375 0.078125 C 5.148438 0.078125 4.425781 -0.09375 3.8125 -0.4375 C 3.195312 -0.78125 2.71875 -1.253906 2.375 -1.859375 C 2.039062 -2.460938 1.875 -3.148438 1.875 -3.921875 L 1.875 -8.515625 L 3.1875 -8.515625 L 3.1875 -3.96875 C 3.1875 -3.425781 3.304688 -2.945312 3.546875 -2.53125 C 3.796875 -2.113281 4.132812 -1.785156 4.5625 -1.546875 C 4.988281 -1.316406 5.460938 -1.203125 5.984375 -1.203125 C 6.523438 -1.203125 7.007812 -1.316406 7.4375 -1.546875 C 7.863281 -1.785156 8.203125 -2.113281 8.453125 -2.53125 C 8.710938 -2.945312 8.84375 -3.425781 8.84375 -3.96875 L 8.84375 -8.515625 Z M 10.09375 -8.515625 "/></g></g></g><g fill="#282929" fill-opacity="1"><g transform="translate(122.161484, 242.743342)"><g><path d="M 0.953125 0 L 4.609375 -4.359375 L 1.015625 -8.515625 L 2.765625 -8.515625 L 5.609375 -5.125 L 8.234375 -8.515625 L 9.9375 -8.515625 L 6.390625 -4.234375 L 10.0625 0 L 8.296875 0 L 5.40625 -3.421875 L 2.640625 0 Z M 0.953125 0 "/></g></g></g><g fill="#282929" fill-opacity="1"><g transform="translate(142.910828, 242.743342)"><g/></g></g><g fill="#282929" fill-opacity="1"><g transform="translate(158.033617, 242.743342)"><g><path d="M 6.109375 -8.515625 C 6.867188 -8.515625 7.535156 -8.398438 8.109375 -8.171875 C 8.691406 -7.953125 9.175781 -7.644531 9.5625 -7.25 C 9.957031 -6.851562 10.25 -6.398438 10.4375 -5.890625 C 10.632812 -5.378906 10.734375 -4.832031 10.734375 -4.25 C 10.734375 -3.476562 10.5625 -2.769531 10.21875 -2.125 C 9.875 -1.476562 9.359375 -0.960938 8.671875 -0.578125 C 7.984375 -0.191406 7.128906 0 6.109375 0 L 2 0 L 2 -8.515625 Z M 6.046875 -1.265625 C 6.828125 -1.265625 7.457031 -1.394531 7.9375 -1.65625 C 8.425781 -1.925781 8.78125 -2.285156 9 -2.734375 C 9.226562 -3.191406 9.34375 -3.695312 9.34375 -4.25 C 9.34375 -4.789062 9.226562 -5.285156 9 -5.734375 C 8.78125 -6.191406 8.425781 -6.554688 7.9375 -6.828125 C 7.445312 -7.109375 6.816406 -7.25 6.046875 -7.25 L 3.3125 -7.25 L 3.3125 -1.265625 Z M 6.046875 -1.265625 "/></g></g></g><g fill="#282929" fill-opacity="1"><g transform="translate(179.852365, 242.743342)"><g><path d="M 2 -8.515625 L 8.734375 -8.515625 L 8.734375 -7.25 L 3.3125 -7.25 L 3.3125 -5 L 8.0625 -5 L 8.0625 -3.734375 L 3.3125 -3.734375 L 3.3125 -1.265625 L 8.734375 -1.265625 L 8.734375 0 L 2 0 Z M 2 -8.515625 "/></g></g></g><g fill="#282929" fill-opacity="1"><g transform="translate(200.042706, 242.743342)"><g><path d="M 2.21875 -2.609375 C 2.65625 -2.117188 3.125 -1.738281 3.625 -1.46875 C 4.132812 -1.195312 4.742188 -1.0625 5.453125 -1.0625 C 5.835938 -1.0625 6.210938 -1.109375 6.578125 -1.203125 C 6.941406 -1.296875 7.238281 -1.441406 7.46875 -1.640625 C 7.695312 -1.835938 7.8125 -2.09375 7.8125 -2.40625 C 7.8125 -2.675781 7.707031 -2.882812 7.5 -3.03125 C 7.300781 -3.1875 7 -3.304688 6.59375 -3.390625 C 6.195312 -3.484375 5.722656 -3.566406 5.171875 -3.640625 C 4.484375 -3.734375 3.882812 -3.878906 3.375 -4.078125 C 2.863281 -4.273438 2.46875 -4.539062 2.1875 -4.875 C 1.914062 -5.21875 1.78125 -5.640625 1.78125 -6.140625 C 1.78125 -6.660156 1.941406 -7.101562 2.265625 -7.46875 C 2.597656 -7.84375 3.035156 -8.128906 3.578125 -8.328125 C 4.128906 -8.523438 4.734375 -8.625 5.390625 -8.625 C 6.222656 -8.625 6.941406 -8.492188 7.546875 -8.234375 C 8.148438 -7.984375 8.617188 -7.617188 8.953125 -7.140625 L 8.078125 -6.1875 C 7.785156 -6.5625 7.410156 -6.863281 6.953125 -7.09375 C 6.492188 -7.332031 5.960938 -7.453125 5.359375 -7.453125 C 4.742188 -7.453125 4.226562 -7.347656 3.8125 -7.140625 C 3.40625 -6.929688 3.203125 -6.640625 3.203125 -6.265625 C 3.203125 -5.972656 3.300781 -5.738281 3.5 -5.5625 C 3.707031 -5.382812 3.992188 -5.25 4.359375 -5.15625 C 4.722656 -5.0625 5.144531 -4.976562 5.625 -4.90625 C 6.09375 -4.84375 6.539062 -4.757812 6.96875 -4.65625 C 7.40625 -4.5625 7.789062 -4.429688 8.125 -4.265625 C 8.457031 -4.109375 8.722656 -3.894531 8.921875 -3.625 C 9.128906 -3.351562 9.234375 -3.007812 9.234375 -2.59375 C 9.234375 -2.050781 9.078125 -1.570312 8.765625 -1.15625 C 8.453125 -0.75 8.007812 -0.429688 7.4375 -0.203125 C 6.863281 0.015625 6.1875 0.125 5.40625 0.125 C 4.570312 0.125 3.816406 -0.00390625 3.140625 -0.265625 C 2.472656 -0.523438 1.878906 -0.945312 1.359375 -1.53125 Z M 2.21875 -2.609375 "/></g></g></g><g fill="#282929" fill-opacity="1"><g transform="translate(220.378879, 242.743342)"><g><path d="M 7.4375 0 L 2.015625 0 L 2.015625 -1.28125 L 4.078125 -1.28125 L 4.078125 -7.21875 L 2.015625 -7.21875 L 2.015625 -8.515625 L 7.4375 -8.515625 L 7.4375 -7.21875 L 5.390625 -7.21875 L 5.390625 -1.28125 L 7.4375 -1.28125 Z M 7.4375 0 "/></g></g></g><g fill="#282929" fill-opacity="1"><g transform="translate(239.572726, 242.743342)"><g><path d="M 6.4375 -8.578125 C 7.019531 -8.578125 7.566406 -8.507812 8.078125 -8.375 C 8.585938 -8.238281 9.03125 -8.0625 9.40625 -7.84375 C 9.789062 -7.625 10.09375 -7.390625 10.3125 -7.140625 L 9.453125 -6.1875 C 9.046875 -6.519531 8.585938 -6.789062 8.078125 -7 C 7.566406 -7.207031 7.019531 -7.3125 6.4375 -7.3125 C 5.738281 -7.3125 5.109375 -7.175781 4.546875 -6.90625 C 3.992188 -6.632812 3.554688 -6.269531 3.234375 -5.8125 C 2.910156 -5.351562 2.75 -4.832031 2.75 -4.25 C 2.75 -3.738281 2.847656 -3.285156 3.046875 -2.890625 C 3.242188 -2.503906 3.515625 -2.179688 3.859375 -1.921875 C 4.203125 -1.671875 4.585938 -1.476562 5.015625 -1.34375 C 5.453125 -1.21875 5.90625 -1.15625 6.375 -1.15625 C 6.976562 -1.15625 7.519531 -1.234375 8 -1.390625 C 8.488281 -1.546875 8.878906 -1.757812 9.171875 -2.03125 C 9.472656 -2.300781 9.640625 -2.617188 9.671875 -2.984375 L 6.421875 -2.984375 L 6.421875 -4.265625 L 11.0625 -4.265625 C 11.082031 -4.171875 11.09375 -4.070312 11.09375 -3.96875 C 11.101562 -3.863281 11.109375 -3.765625 11.109375 -3.671875 C 11.109375 -3.234375 11.039062 -2.816406 10.90625 -2.421875 C 10.769531 -2.023438 10.585938 -1.691406 10.359375 -1.421875 C 9.972656 -0.929688 9.425781 -0.550781 8.71875 -0.28125 C 8.019531 -0.0078125 7.207031 0.125 6.28125 0.125 C 5.613281 0.125 4.984375 0.03125 4.390625 -0.15625 C 3.804688 -0.351562 3.285156 -0.632812 2.828125 -1 C 2.367188 -1.375 2.007812 -1.832031 1.75 -2.375 C 1.488281 -2.925781 1.359375 -3.550781 1.359375 -4.25 C 1.359375 -4.863281 1.488281 -5.429688 1.75 -5.953125 C 2.007812 -6.484375 2.367188 -6.941406 2.828125 -7.328125 C 3.296875 -7.722656 3.835938 -8.03125 4.453125 -8.25 C 5.066406 -8.46875 5.726562 -8.578125 6.4375 -8.578125 Z M 6.4375 -8.578125 "/></g></g></g><g fill="#282929" fill-opacity="1"><g transform="translate(261.683144, 242.743342)"><g><path d="M 9.5 -8.515625 L 10.8125 -8.515625 L 10.8125 0 L 9.515625 0 L 3.09375 -6.65625 C 3.144531 -6.132812 3.191406 -5.613281 3.234375 -5.09375 C 3.285156 -4.570312 3.3125 -4.050781 3.3125 -3.53125 L 3.3125 0 L 2 0 L 2 -8.515625 L 3.28125 -8.515625 L 9.71875 -1.6875 C 9.65625 -2.082031 9.609375 -2.515625 9.578125 -2.984375 C 9.554688 -3.453125 9.535156 -3.921875 9.515625 -4.390625 C 9.503906 -4.859375 9.5 -5.300781 9.5 -5.71875 Z M 9.5 -8.515625 "/></g></g></g></svg>