<svg xmlns="http://www.w3.org/2000/svg" xmlns:xlink="http://www.w3.org/1999/xlink" width="500" zoomAndPan="magnify" viewBox="0 0 375 374.999991" height="500" preserveAspectRatio="xMidYMid meet" version="1.0"><defs><g/><clipPath id="821574f399"><path d="M 274 160 L 282 160 L 282 168 L 274 168 Z M 274 160 " clip-rule="nonzero"/></clipPath><clipPath id="b4f6946643"><path d="M 277.011719 159.25 L 282.324219 163.195312 L 278.445312 168.414062 L 273.132812 164.46875 Z M 277.011719 159.25 " clip-rule="nonzero"/></clipPath><clipPath id="d2f02fe8a3"><path d="M 279.667969 161.222656 C 278.199219 160.132812 276.140625 160.417969 275.070312 161.859375 C 274 163.300781 274.324219 165.355469 275.789062 166.441406 C 277.257812 167.53125 279.316406 167.246094 280.386719 165.804688 C 281.457031 164.363281 281.132812 162.3125 279.667969 161.222656 " clip-rule="nonzero"/></clipPath></defs><g clip-path="url(#821574f399)"><g clip-path="url(#b4f6946643)"><g clip-path="url(#d2f02fe8a3)"><path fill="#282929" d="M 277.011719 159.25 L 282.324219 163.195312 L 278.445312 168.414062 L 273.132812 164.46875 Z M 277.011719 159.25 " fill-opacity="1" fill-rule="nonzero"/></g></g></g><g fill="#282929" fill-opacity="1"><g transform="translate(134.975718, 192.607974)"><g><path d="M 66.875 -27.003906 C 66.386719 -27.492188 65.804688 -27.6875 65.121094 -27.6875 C 64.4375 -27.6875 63.757812 -27.492188 63.269531 -27.003906 C 53.910156 -18.132812 42.40625 -11.894531 29.832031 -8.871094 C 29.34375 -8.675781 28.757812 -8.871094 28.464844 -9.261719 C 28.171875 -9.75 28.074219 -10.234375 28.367188 -10.722656 C 30.125 -14.136719 29.734375 -18.230469 27.492188 -21.347656 C 26.125 -23.203125 24.371094 -24.761719 22.324219 -25.929688 C 19.59375 -27.785156 16.574219 -29.929688 16.476562 -32.171875 C 16.574219 -33.4375 17.058594 -34.609375 17.9375 -35.582031 L 23.203125 -40.554688 C 24.175781 -41.527344 24.273438 -43.089844 23.398438 -44.0625 C 22.519531 -45.136719 21.058594 -45.332031 19.886719 -44.453125 C 17.839844 -42.894531 15.890625 -41.140625 14.234375 -39.09375 L -0.78125 -25.054688 C -1.460938 -24.46875 -1.753906 -23.496094 -1.558594 -22.617188 C -1.363281 -21.640625 -0.683594 -20.960938 0.195312 -20.667969 C 1.074219 -20.472656 2.046875 -20.667969 2.730469 -21.347656 L 10.136719 -28.269531 C 10.527344 -28.660156 11.015625 -28.757812 11.503906 -28.757812 C 11.992188 -28.660156 12.378906 -28.367188 12.574219 -27.980469 C 14.429688 -25.445312 16.769531 -23.300781 19.398438 -21.738281 C 20.863281 -20.863281 22.128906 -19.886719 23.203125 -18.621094 C 24.175781 -17.546875 24.664062 -16.085938 24.371094 -14.621094 C 24.078125 -13.160156 23.203125 -11.894531 21.933594 -11.210938 C 15.695312 -7.703125 7.800781 -9.359375 3.507812 -15.109375 C 2.828125 -16.183594 1.265625 -16.574219 0.0976562 -15.792969 C -1.074219 -15.109375 -1.460938 -13.648438 -0.78125 -12.378906 C 2.4375 -6.824219 8.1875 -3.21875 14.621094 -2.730469 C 16.28125 -2.4375 17.839844 -2.339844 19.496094 -2.339844 C 35.972656 -2.339844 56.25 -12.671875 66.875 -23.398438 C 67.851562 -24.371094 67.851562 -26.027344 66.875 -27.003906 Z M 66.875 -27.003906 "/></g></g></g><g fill="#282929" fill-opacity="1"><g transform="translate(197.947688, 192.607974)"><g><path d="M 66.875 -27.003906 C 66.386719 -27.492188 65.804688 -27.6875 65.121094 -27.6875 C 64.4375 -27.6875 63.757812 -27.492188 63.269531 -27.003906 C 53.910156 -18.132812 42.40625 -11.894531 29.832031 -8.871094 C 29.34375 -8.675781 28.757812 -8.871094 28.464844 -9.261719 C 28.171875 -9.75 28.074219 -10.234375 28.367188 -10.722656 C 30.125 -14.136719 29.734375 -18.230469 27.492188 -21.347656 C 26.125 -23.203125 24.371094 -24.761719 22.324219 -25.929688 C 19.59375 -27.785156 16.574219 -29.929688 16.476562 -32.171875 C 16.574219 -33.4375 17.058594 -34.609375 17.9375 -35.582031 L 23.203125 -40.554688 C 24.175781 -41.527344 24.273438 -43.089844 23.398438 -44.0625 C 22.519531 -45.136719 21.058594 -45.332031 19.886719 -44.453125 C 17.839844 -42.894531 15.890625 -41.140625 14.234375 -39.09375 L -0.78125 -25.054688 C -1.460938 -24.46875 -1.753906 -23.496094 -1.558594 -22.617188 C -1.363281 -21.640625 -0.683594 -20.960938 0.195312 -20.667969 C 1.074219 -20.472656 2.046875 -20.667969 2.730469 -21.347656 L 10.136719 -28.269531 C 10.527344 -28.660156 11.015625 -28.757812 11.503906 -28.757812 C 11.992188 -28.660156 12.378906 -28.367188 12.574219 -27.980469 C 14.429688 -25.445312 16.769531 -23.300781 19.398438 -21.738281 C 20.863281 -20.863281 22.128906 -19.886719 23.203125 -18.621094 C 24.175781 -17.546875 24.664062 -16.085938 24.371094 -14.621094 C 24.078125 -13.160156 23.203125 -11.894531 21.933594 -11.210938 C 15.695312 -7.703125 7.800781 -9.359375 3.507812 -15.109375 C 2.828125 -16.183594 1.265625 -16.574219 0.0976562 -15.792969 C -1.074219 -15.109375 -1.460938 -13.648438 -0.78125 -12.378906 C 2.4375 -6.824219 8.1875 -3.21875 14.621094 -2.730469 C 16.28125 -2.4375 17.839844 -2.339844 19.496094 -2.339844 C 35.972656 -2.339844 56.25 -12.671875 66.875 -23.398438 C 67.851562 -24.371094 67.851562 -26.027344 66.875 -27.003906 Z M 66.875 -27.003906 "/></g></g></g></svg>