<svg xmlns="http://www.w3.org/2000/svg" xmlns:xlink="http://www.w3.org/1999/xlink" width="500" zoomAndPan="magnify" viewBox="0 0 375 374.999991" height="500" preserveAspectRatio="xMidYMid meet" version="1.0"><defs><clipPath id="17f876931d"><path d="M 87.375 189 L 247.125 189 L 247.125 302.671875 L 87.375 302.671875 Z M 87.375 189 " clip-rule="nonzero"/></clipPath></defs><path fill="#ffd180" d="M 213.414062 74.242188 C 204.605469 76.035156 199.09375 77.835938 193.589844 82.960938 C 175.964844 98.609375 174.496094 113.226562 160.914062 134.773438 C 143.65625 162.730469 135.582031 166.066406 113.183594 185.5625 C 110.246094 187.871094 108.042969 190.179688 105.476562 192.488281 C 84.550781 210.699219 65.820312 245.839844 89.320312 268.410156 C 94.09375 272.769531 99.230469 276.363281 106.210938 279.949219 C 112.816406 283.285156 119.0625 287.128906 128.605469 284.570312 C 135.21875 282.777344 141.457031 278.410156 147.335938 275.335938 C 153.578125 272.003906 159.820312 268.410156 167.527344 266.871094 C 174.867188 265.332031 185.519531 264.5625 193.230469 266.101562 C 209.019531 269.183594 231.414062 289.1875 259.320312 275.847656 C 297.875 257.382812 280.613281 227.625 293.832031 197.101562 C 298.609375 185.816406 309.253906 168.628906 302.644531 152.726562 C 298.601562 142.464844 291.996094 139.386719 287.957031 135.792969 C 285.75 133.742188 290.160156 134.511719 283.179688 130.921875 C 280.242188 129.382812 271.796875 121.175781 268.859375 116.554688 C 267.023438 113.734375 265.921875 110.65625 264.453125 106.808594 C 259.308594 91.929688 250.5 85.519531 236.914062 78.085938 C 229.203125 73.976562 223.328125 72.4375 213.414062 74.238281 Z M 213.414062 74.242188 " fill-opacity="1" fill-rule="evenodd"/><path fill="#8d5330" d="M 165.972656 91.039062 C 170.03125 91.402344 179.558594 96.378906 183.980469 103.542969 C 188.402344 110.710938 192.050781 116.78125 192.597656 118.96875 C 193.144531 121.160156 199.390625 132.023438 201.398438 139.464844 C 203.402344 146.902344 203.949219 162.054688 202.945312 165.296875 C 201.945312 168.492188 195.605469 172.554688 189.726562 174.195312 C 183.84375 175.839844 166.429688 176.023438 159.726562 174.195312 C 153.023438 172.371094 145.410156 163.425781 145.136719 163.242188 C 144.863281 163.058594 143.453125 167.121094 141.808594 168.21875 C 140.167969 169.3125 136.65625 168.765625 134.925781 166.390625 C 133.191406 164.019531 133.191406 156.761719 133.742188 154.070312 C 134.289062 151.375 136.65625 149.824219 136.566406 148.453125 C 136.476562 147.085938 135.5625 133.027344 136.566406 128.691406 C 137.570312 124.355469 142.539062 117.191406 142.8125 115 C 143.085938 112.808594 144.820312 104.226562 148.054688 98.933594 C 151.246094 93.59375 155.078125 90.71875 156.855469 90.582031 C 158.90625 90.398438 161.960938 90.671875 165.972656 91.039062 Z M 181.199219 176.113281 C 179.058594 175.976562 163.144531 175.839844 160.410156 175.519531 C 157.675781 175.199219 149.058594 167.898438 149.058594 167.898438 C 149.058594 167.898438 154.4375 176.570312 154.484375 177.800781 C 154.574219 179.035156 152.476562 179.398438 152.476562 179.398438 C 152.476562 179.398438 152.296875 186.613281 150.5625 189.804688 C 148.832031 193 148.011719 195.328125 147.917969 198.160156 C 147.828125 200.988281 150.746094 207.425781 152.066406 211.210938 C 153.34375 215 158.132812 224.449219 159.679688 227.003906 C 161.230469 229.558594 172.539062 243.160156 176.003906 248.957031 C 179.511719 254.753906 186.078125 300.535156 186.078125 300.535156 L 194.785156 299.894531 C 194.785156 299.894531 201.125 252.746094 201.578125 248.820312 C 202.035156 244.851562 200.484375 244.304688 199.027344 239.464844 C 197.566406 234.582031 199.480469 231.75 199.847656 229.46875 C 200.210938 227.1875 195.605469 210.894531 194.695312 208.792969 C 193.785156 206.695312 191.003906 199.253906 190.273438 193.183594 C 189.542969 187.113281 191.730469 174.332031 191.730469 174.332031 C 191.730469 174.332031 183.34375 176.25 181.199219 176.113281 Z M 181.199219 176.113281 " fill-opacity="1" fill-rule="nonzero"/><path fill="#5a270a" d="M 154.4375 123.992188 C 151.703125 124.449219 143.359375 130.015625 142.902344 129.652344 C 142.449219 129.285156 150.609375 120.292969 152.886719 119.746094 C 155.167969 119.199219 163.375 116.460938 165.105469 116.367188 C 166.839844 116.277344 167.75 119.382812 168.390625 120.523438 C 168.433594 120.429688 157.628906 123.488281 154.4375 123.992188 Z M 176.914062 112.582031 C 176.914062 113.722656 178.691406 116.734375 179.148438 116.734375 C 179.605469 116.734375 185.074219 111.941406 186.078125 110.984375 C 187.082031 110.023438 188.359375 110.117188 188.359375 110.117188 L 186.761719 107.515625 C 186.761719 107.515625 185.667969 107.058594 184.527344 107.832031 C 181.839844 109.660156 176.914062 111.851562 176.914062 112.582031 Z M 184.347656 148.730469 C 182.429688 150.464844 177.964844 158.863281 177.734375 159.410156 C 177.507812 159.957031 180.472656 158.496094 181.929688 157.675781 C 183.390625 156.851562 185.988281 153.933594 187.21875 152.972656 C 188.449219 152.015625 190.457031 152.152344 191.6875 151.375 C 192.917969 150.601562 198.160156 150.738281 198.207031 150.28125 C 198.296875 149.777344 196.425781 145.671875 193.785156 145.03125 C 191.140625 144.394531 189.316406 147.496094 188.496094 147.039062 C 187.8125 146.675781 186.304688 147.039062 184.347656 148.730469 Z M 178.648438 160.550781 C 178.648438 160.550781 183.480469 161.1875 186.488281 160.914062 C 189.496094 160.640625 196.519531 156.441406 197.429688 155.484375 C 198.34375 154.527344 198.386719 151.421875 198.25 151.421875 C 198.113281 151.421875 191.414062 153.066406 189.632812 153.476562 C 187.855469 153.886719 185.894531 155.757812 184.894531 156.714844 C 183.890625 157.628906 178.648438 160.550781 178.648438 160.550781 Z M 178.648438 160.550781 " fill-opacity="1" fill-rule="nonzero"/><path fill="#111111" d="M 153.117188 90.535156 C 151.203125 91.039062 147.964844 95.921875 146.140625 99.527344 C 144.316406 103.132812 142.539062 111.667969 141.535156 115.136719 C 140.535156 118.652344 136.476562 124.402344 135.5625 127.460938 C 134.652344 130.472656 135.289062 147.039062 135.5625 148.042969 C 135.835938 149.046875 134.105469 150.691406 133.421875 151.921875 C 132.738281 153.109375 132.464844 163.699219 133.421875 165.707031 C 134.378906 167.714844 138.890625 170.316406 141.355469 169.40625 C 143.816406 168.492188 145.410156 164.976562 145.410156 164.976562 C 145.410156 164.976562 145.957031 165.523438 146.6875 166.4375 C 147.417969 167.351562 153.574219 177.390625 153.480469 178.121094 C 153.390625 178.851562 147.417969 181.410156 146.78125 180.769531 C 146.140625 180.128906 141.808594 172.78125 141.808594 172.78125 L 144 182.503906 C 144 182.503906 138.207031 184.238281 137.480469 183.28125 C 136.75 182.320312 130.230469 169.90625 129.863281 169.542969 C 129.5 169.175781 136.203125 184.421875 136.476562 185.152344 C 136.75 185.882812 131.871094 188.070312 130.6875 187.433594 C 129.5 186.792969 118.46875 171.730469 113.726562 159.136719 C 108.984375 146.539062 109.578125 124.035156 112.359375 112.808594 C 115.09375 101.582031 124.667969 85.515625 128.316406 83.964844 C 131.960938 82.410156 135.382812 83.78125 138.480469 84.328125 C 141.582031 84.875 145.183594 84.238281 148.375 83.964844 C 151.566406 83.6875 157.539062 88.480469 157.722656 88.753906 C 157.8125 88.753906 155.078125 90.035156 153.117188 90.535156 Z M 145.09375 83.597656 C 147.917969 83.550781 149.105469 83.050781 150.972656 83.507812 C 152.84375 83.964844 158.722656 88.253906 159.179688 88.9375 C 159.636719 89.621094 161.777344 89.347656 163.921875 89.804688 C 166.019531 90.261719 176.777344 91.996094 182.386719 99.253906 C 185.257812 102.996094 190.867188 112.855469 192.1875 115.867188 C 193.511719 118.878906 196.335938 125.453125 197.839844 128.234375 C 199.34375 130.972656 202.398438 140.238281 203.039062 143.84375 C 203.675781 147.496094 203.859375 162.332031 203.769531 162.96875 C 203.675781 163.609375 205.136719 165.890625 205.273438 165.707031 C 205.410156 165.523438 209.328125 146.949219 208.007812 138.324219 C 206.730469 129.695312 199.753906 112.308594 195.332031 105.871094 C 190.910156 99.4375 180.835938 87.570312 177.234375 83.828125 C 173.632812 80.039062 158.585938 72.507812 151.15625 74.105469 C 143.726562 75.703125 138.9375 83.1875 138.9375 83.1875 C 138.9375 83.1875 142.265625 83.644531 145.09375 83.597656 Z M 145.09375 83.597656 " fill-opacity="1" fill-rule="nonzero"/><g clip-path="url(#17f876931d)"><path fill="#f2ddcc" d="M 150.289062 189.121094 C 150.289062 189.121094 146.960938 194.964844 147.234375 198.617188 C 147.507812 202.265625 152.660156 214.636719 154.347656 217.832031 C 156.035156 220.980469 160.410156 229.605469 160.410156 229.605469 C 160.410156 229.605469 152.613281 226.320312 147.371094 226.683594 C 142.128906 227.050781 128.085938 236.589844 125.898438 236.316406 C 123.710938 236.042969 126.261719 209.203125 126.628906 206.191406 C 126.992188 203.179688 128.269531 203.542969 131.234375 201.765625 C 134.152344 200.03125 148.695312 189.625 148.695312 189.625 C 149.558594 188.984375 150.289062 189.121094 150.289062 189.121094 Z M 125.488281 204.824219 C 124.304688 205.277344 101.507812 206.832031 97.269531 212.765625 C 92.980469 218.699219 88.195312 256.351562 89.699219 271.09375 C 91.203125 285.835938 87.375 301.492188 87.785156 302.039062 C 88.195312 302.585938 185.257812 300.578125 185.257812 300.578125 C 185.257812 300.578125 180.472656 257.128906 175.683594 249.960938 C 170.898438 242.796875 163.007812 231.066406 160.410156 230.246094 C 157.8125 229.421875 149.011719 226.730469 146.460938 227.824219 C 143.90625 228.875 127.539062 237.183594 125.945312 237 C 124.347656 236.816406 124.394531 229.878906 124.578125 226.867188 C 124.757812 223.855469 125.535156 209.796875 125.761719 208.015625 C 125.945312 206.238281 125.488281 204.824219 125.488281 204.824219 Z M 195.242188 207.011719 C 197.25 211.898438 199.753906 221.253906 200.210938 225.589844 C 200.667969 229.925781 200.394531 231.570312 199.574219 234.261719 C 198.753906 236.953125 202.398438 244.441406 202.398438 244.441406 C 202.398438 244.441406 204.042969 230.472656 206.914062 230.839844 C 209.738281 231.203125 217.765625 241.609375 217.765625 240.652344 C 217.765625 239.738281 214.164062 227.050781 209.328125 219.882812 C 204.496094 212.71875 192.277344 198.203125 192.050781 197.929688 C 192.050781 197.929688 193.234375 202.128906 195.242188 207.011719 Z M 213.066406 225.132812 C 214.617188 228.144531 219.859375 241.015625 217.765625 241.65625 C 215.667969 242.292969 207.960938 231.84375 206.824219 231.933594 C 205.726562 232.023438 203.722656 242.796875 203.3125 245.71875 C 202.992188 248.640625 196.472656 299.847656 196.472656 299.847656 L 247.125 300.851562 C 247.125 300.851562 243.15625 239.964844 241.0625 234.261719 C 238.964844 228.601562 204.90625 212.355469 204.90625 212.355469 C 205.726562 213.082031 211.519531 222.074219 213.066406 225.132812 Z M 213.066406 225.132812 " fill-opacity="1" fill-rule="nonzero"/></g><path fill="#e08d3b" d="M 138.984375 163.925781 C 138.574219 164.703125 138.027344 170.179688 139.394531 172.828125 C 140.761719 175.429688 145.046875 177.574219 146.550781 177.027344 C 148.054688 176.480469 147.328125 169.359375 146.1875 167.945312 C 145.09375 166.484375 141.71875 163.472656 141.035156 163.378906 C 140.351562 163.289062 138.984375 163.925781 138.984375 163.925781 Z M 138.984375 163.925781 " fill-opacity="1" fill-rule="nonzero"/></svg>